<svg width="76" height="67" viewBox="0 0 76 67" fill="none" xmlns="http://www.w3.org/2000/svg">
<path fillRule="evenodd" clipRule="evenodd" d="M75.0325 23.1685C75.1228 22.9107 75.2074 22.6494 75.2862 22.3848C75.3283 22.2433 75.3685 22.1017 75.4068 21.96C76.3374 18.5161 76.1399 15.0207 75.0325 11.8769V23.1685ZM73.3919 8.47391C72.5965 7.20432 71.6334 6.03707 70.5224 5.009V30.0374L70.5923 29.9726C71.657 28.9795 72.6013 27.8432 73.3919 26.5818V8.47391ZM66.0106 2.01417C67.0335 2.47773 67.993 3.03451 68.8818 3.67107V31.3722C67.9804 32.0172 67.0183 32.5731 66.0106 33.0319V21.1227C66.2254 20.7005 66.4053 20.2529 66.5453 19.7826C66.9126 18.5487 66.9649 17.2959 66.7488 16.1105C66.6098 15.3475 66.3595 14.6125 66.0106 13.9283V2.01417ZM66.0106 56.3398C66.2285 55.8099 66.4218 55.264 66.5888 54.703C66.6329 54.5549 66.6748 54.4068 66.7147 54.2585C67.5693 51.0809 67.464 47.8601 66.5701 44.9127C66.4089 44.3811 66.2221 43.8585 66.0106 43.3466V56.3398ZM64.37 23.3029V33.6789C63.439 33.9916 62.4783 34.225 61.4983 34.3734V25.0218C61.8462 24.9037 62.1852 24.7616 62.5126 24.597C62.6468 24.5295 62.779 24.4583 62.9092 24.3834C63.4341 24.0812 63.9247 23.719 64.37 23.3029ZM64.37 11.7445V1.37044C64.1882 1.30966 64.0047 1.25168 63.8196 1.19657C63.0477 0.966792 62.2725 0.794292 61.4983 0.676605V10.0268C62.6001 10.3992 63.5691 10.9935 64.37 11.7445ZM64.37 40.2936V59.3981C63.548 60.6124 62.5801 61.7019 61.4983 62.6492L61.4983 37.0327C62.5972 37.9979 63.5604 39.0959 64.37 40.2936ZM57.7075 34.5172C58.4287 34.571 59.1467 34.5781 59.8577 34.5405V25.3904C59.3742 25.4459 58.8818 25.4569 58.3861 25.4205C58.1124 25.4004 57.8377 25.3658 57.5629 25.3162L57.5165 25.3077C57.3397 25.2747 57.163 25.2356 56.9865 25.19V45.6673C57.0328 45.742 57.0779 45.8175 57.1218 45.8937C58.1666 47.7096 58.4928 49.9343 57.8479 52.1008C57.6419 52.7927 57.3497 53.4355 56.9865 54.0208L56.9865 65.4947C57.9914 65.0623 58.9532 64.5343 59.8577 63.9185L59.8577 35.7611C59.1792 35.2989 58.4614 34.8824 57.7075 34.5172ZM59.8577 0.50821V9.65832C58.8784 9.54524 57.907 9.61917 56.9865 9.85689V0.598563C57.9307 0.488075 58.8908 0.45633 59.8577 0.50821ZM55.3459 43.773L55.3459 24.5685C54.1748 23.9696 53.1993 23.1008 52.4747 22.0645V42.2424L52.5199 42.2557C52.656 42.2962 52.7901 42.3401 52.9223 42.3871C53.2008 42.4863 53.4707 42.5997 53.7312 42.7263C54.3191 43.0121 54.8596 43.3652 55.3459 43.773ZM55.3459 10.4811V0.872685C54.361 1.0873 53.4003 1.38841 52.4747 1.77006V12.9803C52.6179 12.7757 52.7703 12.5791 52.9308 12.3907C53.6073 11.5972 54.4308 10.9507 55.3459 10.4811ZM55.3459 55.91V66.1032C54.4135 66.3957 53.4531 66.609 52.4747 66.7377L52.4747 57.4431C53.5266 57.1357 54.5056 56.6127 55.3459 55.91ZM50.8341 32.8121L50.8341 41.9457C49.701 41.8625 48.5852 42.0272 47.5533 42.4038V33.0193C48.6274 32.8456 49.7256 32.7741 50.8341 32.8121ZM50.8341 2.55069V32.5013C49.6367 31.8533 48.5387 31.0725 47.5533 30.1835L47.5533 4.86661C48.5545 3.96617 49.6569 3.18944 50.8341 2.55069ZM50.8341 66.8729V57.7392C49.9051 57.8067 48.9484 57.7102 48.0028 57.4287C47.8506 57.3834 47.7007 57.3339 47.5533 57.2804L47.5533 66.6632C48.6529 66.8416 49.7508 66.9091 50.8341 66.8729ZM45.9127 43.228L45.9128 33.3685C44.7765 33.6696 43.6769 34.0868 42.6316 34.6107V47.7346C42.6455 47.6842 42.6599 47.634 42.6749 47.5837C43.2291 45.7221 44.4071 44.2168 45.9127 43.228ZM45.9128 28.4819V6.56231C44.454 8.29667 43.3195 10.3522 42.6316 12.6627L42.6316 22.3921L42.6501 22.4536C43.3195 24.6607 44.431 26.7145 45.9128 28.4819ZM45.9127 56.4588V66.3136C45.7419 66.2684 45.5712 66.2205 45.4006 66.1697C44.4311 65.881 43.5064 65.5138 42.6316 65.0769L42.6316 51.9537C43.139 53.7805 44.2943 55.3959 45.9127 56.4588ZM40.991 9.93877V25.1124C40.1412 26.8254 39.025 28.3485 37.7098 29.6452L37.7098 5.3996C39.0511 6.72659 40.1577 8.26358 40.991 9.93877ZM40.991 64.1399L40.991 35.5495C40.1533 36.0923 39.362 36.709 38.6279 37.3937C38.3109 37.6894 38.0046 37.9977 37.7098 38.3183V61.3643C38.6716 62.414 39.7709 63.3496 40.991 64.1399ZM36.0692 31.0682V3.9725C35.0678 3.20853 33.9703 2.54831 32.7881 2.0126V13.9265C33.6793 15.6736 33.9268 17.7529 33.323 19.7811C33.1829 20.2515 33.003 20.6992 32.7881 21.1216V33.0304C33.7748 32.5813 34.7176 32.039 35.6027 31.4112C35.7601 31.2996 35.9156 31.1852 36.0692 31.0682ZM36.0692 40.411V59.2661C34.9339 57.5543 34.11 55.6436 33.6488 53.6285C33.5668 53.9866 33.4728 54.3444 33.3665 54.7015C33.1994 55.2626 33.006 55.8087 32.7881 56.3388V43.3447C33.1496 44.2196 33.4391 45.126 33.6516 46.0545C33.7011 45.8383 33.755 45.6222 33.8134 45.4063C33.8517 45.2646 33.8919 45.123 33.934 44.9815C34.4294 43.3175 35.1563 41.7858 36.0692 40.411ZM31.1475 23.3016V33.6774C30.087 34.0337 28.988 34.2869 27.8659 34.4288V25.1474C28.839 24.8746 29.7517 24.4179 30.5523 23.8052C30.7584 23.6475 30.9571 23.4795 31.1475 23.3016ZM31.1475 1.36889V11.7429C30.2792 10.9287 29.2134 10.2987 27.995 9.93601C27.952 9.9232 27.9089 9.91078 27.8659 9.89873V0.617856C28.2113 0.661787 28.557 0.716556 28.9028 0.782383C29.4682 0.890046 30.0336 1.0273 30.5972 1.19508C30.7823 1.25017 30.9657 1.30813 31.1475 1.36889ZM31.1475 59.3968V40.2919C30.2387 38.9475 29.1364 37.7287 27.8659 36.6824L27.8659 62.9956C29.1139 61.9703 30.223 60.7625 31.1475 59.3968ZM26.2253 34.5557C26.1335 34.5584 26.0416 34.5602 25.9495 34.5613C25.4637 34.5673 24.9752 34.5523 24.4852 34.5157C25.0889 34.8082 25.6695 35.1335 26.2253 35.4889L26.2253 64.1877C25.1942 64.8472 24.0939 65.3953 22.9446 65.8211L22.9446 55.1143C23.6978 54.2719 24.2817 53.2541 24.6255 52.0993C25.1602 50.3033 25.0274 48.4674 24.3712 46.8574C24.0302 46.0209 23.548 45.2455 22.9446 44.5683V24.9297C23.1189 24.9952 23.2967 25.0551 23.478 25.109C24.3951 25.3821 25.3227 25.481 26.2253 25.4251V34.5557ZM26.2253 9.62031V0.489693C25.1164 0.457159 24.0183 0.534175 22.9446 0.71333V10.1152C23.9743 9.72623 25.0904 9.54909 26.2253 9.62031ZM21.304 24.0832V43.17C20.6957 42.7815 20.0238 42.4704 19.2976 42.2542C18.8739 42.1281 18.4479 42.0391 18.0232 41.9854V32.8297C18.1122 32.835 18.2013 32.8409 18.2904 32.8475C18.2008 32.8041 18.1118 32.76 18.0232 32.7152V19.3066C18.4711 21.235 19.6344 22.9558 21.304 24.0832ZM21.304 1.0712V10.9641C19.8385 11.9533 18.6939 13.4371 18.15 15.264C18.1025 15.4235 18.0603 15.5833 18.0232 15.7433L18.0232 2.33308C19.0678 1.80244 20.1672 1.37864 21.304 1.0712ZM21.304 66.3365L21.304 56.5092C20.3191 57.1385 19.1985 57.549 18.0232 57.6969L18.0232 66.8525C19.1391 66.7879 20.2374 66.6133 21.304 66.3365ZM16.3827 41.9503V32.8131C15.2681 32.856 14.1695 33.0087 13.101 33.2636V42.9743C14.0979 42.4028 15.2175 42.0475 16.3827 41.9503ZM16.3827 31.7658L16.3827 3.28418C15.1811 4.07266 14.0764 5.01396 13.101 6.09048L13.101 28.9524C14.0608 30.0154 15.1604 30.9638 16.3827 31.7658ZM16.3827 57.7306L16.3827 66.8678C15.2941 66.8251 14.196 66.6766 13.101 66.4154V56.7092C13.3932 56.8764 13.6987 57.0263 14.0165 57.1572C14.2638 57.259 14.5187 57.3493 14.7805 57.4272C15.3134 57.5859 15.8497 57.6857 16.3827 57.7306ZM9.45258 47.5822C9.84463 46.2653 10.5489 45.1266 11.4605 44.223V33.7431C10.4642 34.0893 9.50288 34.5267 8.58922 35.0484L8.58922 64.6374C9.48967 65.1506 10.4487 65.5876 11.4605 65.9374V55.4585C9.46132 53.4698 8.59164 50.4741 9.45258 47.5822ZM11.4605 8.21885L11.4605 26.8186C10.9966 26.1055 10.5863 25.3586 10.2334 24.5846C8.58535 20.9707 8.18677 16.7676 9.4091 12.6618C9.8892 11.0491 10.5869 9.5606 11.4605 8.21885ZM6.94864 36.1139C4.05945 38.2343 1.81308 41.2803 0.71167 44.98C-1.39678 52.0624 1.31767 59.434 6.94864 63.5722L6.94864 36.1139Z" fill="#191819"/>
</svg>
